<?xml version="1.0" standalone="no"?>
<!DOCTYPE svg PUBLIC "-//W3C//DTD SVG 20010904//EN"
 "http://www.w3.org/TR/2001/REC-SVG-20010904/DTD/svg10.dtd">
<svg version="1.0" xmlns="http://www.w3.org/2000/svg"
 width="959.000000pt" height="959.000000pt" viewBox="0 0 959.000000 959.000000"
 preserveAspectRatio="xMidYMid meet">
<metadata>
Created by potrace 1.14, written by Peter Selinger 2001-2017
</metadata>
<g transform="translate(0.000000,959.000000) scale(0.100000,-0.100000)"
fill="#000000" stroke="none">
<path d="M0 4795 l0 -4795 4795 0 4795 0 0 4795 0 4795 -4795 0 -4795 0 0
-4795z m3179 3583 c72 -41 190 -120 218 -147 12 -12 25 -21 29 -21 4 0 52 -44
107 -97 127 -125 297 -350 351 -465 10 -20 24 -42 32 -49 8 -6 14 -15 14 -20
0 -5 24 -60 54 -123 30 -63 62 -136 71 -162 9 -27 20 -53 24 -59 5 -5 21 -44
35 -85 28 -78 28 -127 0 -116 -8 3 -13 2 -10 -3 7 -11 -22 -36 -32 -27 -4 4
-7 11 -8 14 -7 74 -175 504 -217 560 -5 7 -26 44 -46 82 -94 180 -334 468
-510 610 -23 19 -52 43 -63 52 -11 10 -42 32 -69 49 -27 17 -49 33 -49 35 0 9
15 3 69 -28z m1026 -480 c62 -185 76 -240 81 -317 2 -35 8 -69 14 -76 11 -13
36 -173 45 -297 4 -49 10 -88 14 -88 3 0 23 38 44 83 46 101 145 236 246 337
168 166 439 312 734 394 292 82 548 116 881 116 184 0 217 -2 207 -14 -7 -8
-44 -16 -94 -20 -693 -59 -1235 -258 -1564 -573 -111 -107 -180 -197 -237
-312 -42 -83 -88 -214 -102 -286 -3 -19 -10 -35 -15 -35 -4 0 -27 27 -49 60
-23 33 -45 58 -49 56 -4 -3 -11 -47 -15 -98 -4 -51 -9 -108 -12 -125 l-6 -33
91 0 c220 0 415 -78 586 -233 l60 -54 -49 -44 c-27 -24 -52 -44 -57 -44 -4 0
-29 20 -56 46 -137 129 -350 203 -527 184 l-65 -6 -11 -57 c-19 -95 -70 -271
-110 -377 -44 -119 -138 -320 -146 -312 -3 3 1 18 9 34 49 95 168 509 183 636
l7 58 -27 -11 c-164 -62 -292 -168 -391 -324 -173 -273 -189 -640 -40 -937
103 -205 286 -357 493 -410 110 -28 105 -30 98 44 -8 78 8 238 35 342 27 103
113 282 177 365 158 208 371 330 622 355 82 8 223 -9 304 -37 75 -26 199 -87
246 -122 51 -39 130 -117 130 -129 0 -13 -70 -87 -82 -87 -4 0 -42 28 -85 63
-148 118 -279 167 -447 167 -160 0 -292 -46 -423 -146 -201 -154 -322 -410
-326 -691 -1 -66 1 -124 5 -129 14 -14 119 17 206 61 51 25 114 68 150 101
l63 57 45 -44 c24 -24 44 -49 44 -56 0 -37 -172 -165 -285 -212 -40 -17 -99
-37 -130 -46 -32 -8 -60 -17 -62 -19 -8 -7 47 -148 79 -206 152 -271 443 -430
715 -391 137 20 258 74 363 162 38 33 74 59 79 59 12 0 81 -83 81 -98 0 -20
-121 -119 -202 -166 -133 -75 -219 -98 -378 -103 -115 -4 -148 -2 -220 17
-303 77 -540 308 -650 635 -30 89 -13 78 -160 105 -82 15 -218 69 -288 116
-142 94 -295 280 -361 437 -143 346 -109 736 93 1040 122 184 271 301 470 368
l81 27 8 58 c13 92 1 464 -18 594 -29 193 -96 429 -171 599 -13 29 -24 61 -24
69 0 9 17 33 37 54 48 49 47 50 108 -134z m-815 -2968 l0 -990 -70 0 -70 0 0
990 0 990 70 0 70 0 0 -990z m90 -1125 c19 -23 -3 -65 -34 -65 -14 0 -25 -7
-27 -17 -2 -10 -3 -105 -1 -211 l3 -193 57 3 57 3 0 135 0 135 -32 3 c-30 3
-33 6 -33 38 l0 34 69 0 c52 0 70 -4 75 -15 5 -13 10 -12 38 5 54 33 145 21
188 -25 l23 -24 33 29 c63 55 168 53 223 -4 42 -43 51 -80 51 -208 0 -107 0
-108 24 -108 30 0 49 -22 44 -52 -3 -22 -6 -23 -108 -23 l-105 0 -3 28 c-3 23
2 30 32 42 l36 15 0 96 c0 129 -25 174 -95 174 -77 0 -105 -49 -105 -180 0
-86 4 -96 43 -105 24 -6 28 -12 25 -39 l-3 -31 -102 -3 -103 -3 0 35 c0 30 4
35 30 41 l30 7 0 98 c0 142 -19 180 -91 180 -31 0 -47 -7 -70 -29 -29 -29 -29
-31 -29 -140 l0 -111 30 -6 c26 -6 30 -11 30 -40 l0 -34 -207 2 -208 3 0 35
c0 31 3 35 30 40 l30 5 3 208 c2 199 2 207 -17 207 -36 0 -51 12 -51 39 0 15
3 31 7 34 3 4 50 7 103 7 75 0 100 -3 110 -15z m2280 -60 l5 -70 43 -3 c41 -3
42 -4 42 -37 0 -33 -1 -34 -42 -37 l-43 -3 0 -135 0 -135 37 -3 c44 -4 62 -23
54 -57 -6 -25 -8 -26 -89 -23 l-82 3 -5 175 -5 175 -27 3 c-25 3 -28 0 -28
-25 0 -58 -41 -69 -92 -24 -18 15 -43 33 -55 40 -53 27 -140 2 -173 -51 -44
-73 -34 -149 28 -196 29 -22 46 -27 92 -27 53 0 60 3 103 43 47 42 74 51 94
31 26 -26 -32 -103 -101 -135 -144 -67 -304 18 -322 173 -8 67 17 143 62 185
63 60 173 84 236 52 23 -12 36 -13 52 -5 11 6 46 12 76 13 l55 3 3 60 c4 82 6
87 44 83 l33 -3 5 -70z m-1147 -89 c21 -11 51 -38 69 -63 l30 -45 18 30 c37
61 118 102 201 102 39 0 103 -23 114 -40 10 -16 22 -12 28 10 5 19 12 21 74
18 68 -3 68 -3 68 -32 0 -25 -5 -31 -32 -38 l-33 -9 0 -130 0 -130 36 -15 c30
-12 35 -19 32 -42 -3 -26 -5 -27 -70 -30 -60 -3 -67 -1 -73 18 l-7 21 -34 -22
c-20 -12 -59 -23 -93 -26 -80 -7 -140 16 -192 75 l-40 46 -16 -24 c-67 -96
-188 -128 -287 -75 -26 14 -49 25 -52 25 -3 0 -3 -24 -1 -52 4 -49 6 -54 36
-63 27 -8 31 -14 31 -42 l0 -33 -105 0 -105 0 0 34 c0 30 3 35 28 38 l27 3 3
218 2 217 -30 0 c-28 0 -30 3 -30 35 l0 35 70 0 c63 0 70 -2 70 -20 0 -26 5
-25 65 6 59 30 135 30 198 0z m-889 -464 l39 -23 14 21 c16 22 52 27 71 8 7
-7 12 -40 12 -78 0 -38 -5 -71 -12 -78 -21 -21 -57 -13 -97 23 -105 95 -251
89 -345 -15 -53 -59 -69 -138 -45 -225 16 -59 93 -130 164 -151 86 -24 148 -7
223 61 21 18 51 35 67 37 29 3 30 5 36 64 15 157 154 253 302 210 96 -28 155
-95 171 -192 10 -65 9 -66 -182 -65 -94 1 -177 -2 -186 -5 -23 -9 -20 -28 10
-64 38 -44 98 -73 137 -65 41 9 98 41 115 66 14 20 76 27 87 9 8 -13 -17 -60
-47 -86 -46 -42 -104 -64 -170 -64 -80 0 -130 23 -186 84 l-43 47 -51 -45
c-188 -164 -472 -86 -534 147 -19 71 -18 114 6 188 22 72 61 125 123 168 64
43 94 51 193 48 72 -2 98 -7 128 -25z m1271 1 c12 -12 16 -29 13 -64 -7 -76
-3 -79 117 -79 87 0 106 -3 113 -17 8 -14 14 -15 38 -5 16 7 45 13 64 14 34 3
35 2 35 -31 0 -30 -4 -35 -44 -50 -73 -27 -86 -54 -86 -179 l0 -106 32 -8 c39
-10 47 -21 39 -54 l-6 -24 -195 0 -195 0 0 174 c0 96 -3 181 -6 190 -4 10 -18
16 -40 16 -33 0 -34 1 -34 40 0 39 1 40 34 40 41 0 46 11 46 90 0 37 5 60 13
63 24 10 46 7 62 -10z m-332 -149 c54 -18 101 -67 116 -121 6 -21 11 -86 11
-145 0 -105 1 -108 23 -108 35 0 49 -15 45 -46 l-3 -29 -112 -3 -113 -3 0 35
c0 32 4 36 33 44 l32 8 3 90 c4 114 -3 151 -35 180 -20 19 -37 24 -75 24 -43
0 -54 -4 -84 -34 l-34 -34 0 -111 0 -111 34 -14 c42 -17 50 -30 36 -56 -10
-19 -19 -20 -118 -18 -103 3 -107 4 -110 26 -5 30 14 52 44 52 l25 0 -3 148
-3 147 -28 3 c-32 4 -42 21 -33 57 6 24 10 25 76 25 51 0 71 -4 77 -15 8 -13
15 -12 58 5 62 24 79 24 138 4z m1062 -8 c28 -12 65 -38 83 -57 51 -52 81
-179 46 -193 -9 -3 -96 -6 -195 -6 -98 0 -179 -3 -179 -6 0 -12 24 -51 48 -77
56 -59 149 -56 216 9 29 28 43 35 69 32 44 -4 45 -28 5 -74 -91 -104 -268
-113 -363 -18 -72 72 -89 192 -39 283 62 115 194 161 309 107z m-1087 -487 c3
-23 -5 -30 -79 -68 -63 -32 -84 -39 -95 -30 -30 25 -15 47 59 88 83 46 111 48
115 10z m-1032 -15 c29 -12 43 -13 56 -5 10 6 54 11 98 11 l80 0 0 -75 c0 -41
3 -75 8 -75 4 0 16 7 26 15 27 20 111 19 146 -1 49 -29 64 -69 70 -179 l5
-100 36 -3 c45 -4 49 7 49 131 l0 88 -30 10 c-33 12 -42 52 -14 63 29 11 91 6
103 -8 10 -11 18 -11 53 1 39 13 43 13 55 -3 18 -25 13 -36 -28 -56 -59 -30
-69 -50 -69 -143 0 -81 1 -83 26 -89 20 -5 25 -12 22 -34 l-3 -27 -162 -3
c-156 -2 -162 -2 -168 18 -8 25 10 50 35 50 40 0 35 173 -7 212 -33 31 -87 28
-121 -6 -22 -22 -26 -35 -30 -111 l-5 -85 32 -11 c27 -9 32 -16 29 -38 -3 -26
-4 -26 -88 -26 -84 0 -85 0 -88 26 -3 22 2 29 28 37 l30 11 -2 173 c-3 165 -4
173 -23 173 -14 0 -21 -8 -23 -25 -8 -52 -45 -66 -78 -29 -49 56 -155 74 -222
40 -124 -63 -137 -229 -25 -313 70 -53 143 -49 225 13 55 41 90 47 96 15 5
-26 -53 -84 -113 -112 -132 -63 -299 10 -340 147 -40 135 7 258 119 314 60 30
153 34 212 9z m1238 0 c10 -10 16 -33 16 -64 l0 -49 88 -3 87 -3 3 -143 c2
-139 3 -143 26 -152 26 -10 38 -32 30 -55 -4 -8 -7 -15 -8 -16 -19 -8 -258 -8
-278 0 l-28 11 0 144 0 145 -27 3 c-24 3 -28 8 -28 33 0 25 4 30 28 33 26 3
27 6 27 58 0 55 2 57 47 73 1 1 9 -6 17 -15z m191 -39 c0 -38 -2 -40 -30 -40
-28 0 -30 3 -33 43 l-3 43 33 -3 c31 -3 33 -5 33 -43z m297 -85 c4 0 24 -15
44 -32 42 -37 64 -82 64 -132 0 -43 -9 -46 -172 -46 -144 0 -153 -6 -93 -59
49 -43 106 -43 161 -1 38 29 78 38 88 21 11 -17 -40 -76 -84 -98 -60 -31 -120
-30 -181 4 -94 51 -126 176 -69 264 46 69 118 102 195 87 22 -4 43 -7 47 -8z
m-704 -4 c36 -19 78 -65 91 -99 16 -43 14 -94 -5 -101 -9 -3 -76 -6 -150 -6
-91 0 -134 -4 -134 -11 0 -6 15 -26 34 -45 29 -29 41 -34 81 -34 38 0 54 6 82
30 34 30 76 39 88 20 11 -18 -45 -81 -89 -101 -69 -31 -156 -19 -209 29 -95
86 -64 274 53 321 37 15 127 13 158 -3z m937 4 c11 0 45 3 76 6 50 5 62 3 96
-21 54 -35 63 -60 63 -171 l0 -95 31 -11 c25 -8 30 -15 27 -37 -3 -26 -4 -26
-90 -29 l-88 -3 0 30 c0 24 5 32 25 37 24 6 25 8 25 98 0 85 -2 94 -24 115
-36 33 -89 32 -124 -2 -25 -26 -27 -33 -27 -114 0 -84 1 -87 25 -93 20 -5 25
-12 25 -35 l0 -30 -85 0 -85 0 0 30 c0 23 5 31 23 33 21 3 22 7 22 117 0 110
-1 114 -22 117 -24 3 -34 28 -24 55 5 12 17 14 59 9 28 -3 61 -6 72 -6z
m-1981 -446 c10 -27 7 -71 -7 -82 -7 -6 -30 -12 -52 -14 l-40 -3 4 -300 c2
-165 5 -302 8 -305 3 -3 50 -5 106 -5 l102 0 5 60 5 60 55 0 55 0 0 -115 0
-115 -269 -3 c-190 -2 -273 1 -282 9 -17 14 -18 71 -2 87 7 7 28 12 48 12 l37
0 6 137 c9 171 9 446 1 467 -4 11 -19 16 -43 16 -44 0 -61 14 -61 51 0 59 -1
59 165 59 130 0 154 -2 159 -16z m1369 -219 c61 -28 114 -81 149 -147 19 -36
23 -58 23 -143 0 -86 -3 -107 -24 -150 -32 -63 -92 -124 -156 -155 -41 -20
-64 -25 -135 -24 -106 0 -170 26 -233 93 -66 70 -90 129 -91 226 -1 72 3 87
32 147 42 85 104 141 186 168 81 27 174 21 249 -15z m640 15 c29 -11 69 -36
89 -57 58 -59 70 -105 75 -290 l6 -163 31 0 c48 0 58 -11 54 -61 l-3 -44 -144
-3 c-158 -3 -161 -2 -161 55 0 37 21 53 70 53 l32 0 -4 163 c-3 178 -7 192
-66 229 -42 26 -124 29 -169 5 -17 -9 -42 -31 -55 -49 -21 -31 -23 -45 -27
-190 l-3 -158 40 0 c49 0 64 -17 60 -67 l-3 -38 -150 0 -150 0 -3 39 c-4 46 5
57 55 65 l38 6 0 200 0 200 -45 5 c-41 5 -45 8 -48 34 -2 15 -1 39 2 53 6 23
8 24 104 21 92 -3 97 -4 100 -25 4 -27 6 -28 37 -7 71 47 155 55 238 24z
m-1507 -14 c3 -13 4 -37 2 -52 -3 -26 -8 -29 -40 -32 -21 -2 -38 -7 -38 -11 0
-5 13 -42 29 -82 16 -41 45 -114 64 -164 19 -49 38 -90 42 -90 9 0 134 304
135 327 0 12 -10 18 -32 20 -31 3 -33 5 -36 47 -2 28 1 47 10 52 7 5 73 9 146
9 132 0 132 0 144 -25 8 -18 9 -35 2 -53 -8 -23 -17 -28 -54 -32 -34 -4 -47
-11 -57 -30 -22 -41 -234 -553 -240 -577 -4 -19 -1 -23 20 -23 46 0 65 -34 51
-87 -6 -23 -9 -23 -154 -23 l-148 0 -6 25 c-15 59 4 80 77 87 25 3 32 11 54
62 l24 58 -87 222 c-48 121 -93 236 -100 254 -11 27 -18 32 -48 32 -55 0 -66
8 -66 49 0 20 5 42 12 49 8 8 56 12 150 12 137 0 138 0 144 -24z"/>
<path d="M4431 3583 c-47 -23 -71 -67 -71 -128 0 -89 57 -145 147 -145 44 0
58 5 86 30 101 88 47 260 -81 260 -26 0 -62 -8 -81 -17z"/>
<path d="M4849 3577 c-123 -82 -67 -267 80 -267 82 0 141 64 141 152 0 106
-132 175 -221 115z"/>
<path d="M4022 2964 c-34 -18 -82 -72 -82 -92 0 -9 43 -12 150 -12 83 0 150 3
150 6 0 19 -46 76 -71 89 -46 24 -109 28 -147 9z"/>
<path d="M5007 2953 c-8 -28 -9 -241 -2 -263 6 -17 15 -20 76 -20 l69 0 0 150
0 150 -69 0 c-58 0 -70 -3 -74 -17z"/>
<path d="M5563 2960 c-37 -16 -83 -68 -83 -92 0 -5 68 -8 150 -8 83 0 150 3
150 8 0 23 -44 72 -82 91 -54 26 -81 26 -135 1z"/>
<path d="M4852 2238 l3 -113 58 -3 57 -3 0 116 0 115 -60 0 -61 0 3 -112z"/>
<path d="M5193 2340 c-28 -17 -53 -47 -53 -64 0 -3 52 -6 115 -6 63 0 115 3
115 8 0 19 -35 55 -66 68 -45 19 -73 18 -111 -6z"/>
<path d="M4496 2345 c-16 -9 -35 -23 -42 -33 -29 -38 -19 -42 96 -42 61 0 110
3 110 8 0 16 -33 53 -60 67 -37 19 -67 19 -104 0z"/>
<path d="M4755 1659 c-125 -29 -198 -190 -138 -304 42 -79 105 -115 202 -115
50 0 66 5 107 33 69 48 95 103 91 189 -2 56 -8 75 -33 110 -51 73 -142 107
-229 87z"/>
</g>
</svg>
